<svg width="190" height="190" viewBox="0 0 190 190" fill="none" xmlns="http://www.w3.org/2000/svg">
<rect x="119" y="44.9202" width="5.65654" height="26.3741" rx="2.82827" transform="rotate(-9.36193 119 44.9202)" fill="#454545"/>
<rect x="149.353" y="61.7117" width="5.65654" height="27.2088" rx="2.82827" transform="rotate(82.5651 149.353 61.7117)" fill="#454545"/>
<rect width="5.65654" height="26.3741" rx="2.82827" transform="matrix(-0.98668 -0.16267 -0.16267 0.98668 71.0845 44.9202)" fill="#454545"/>
<rect width="5.65654" height="27.2088" rx="2.82827" transform="matrix(-0.129399 0.991593 0.991593 0.129399 40.7319 61.7117)" fill="#454545"/>
<circle cx="95.5" cy="98.5" r="48.5" fill="#444444"/>
<path fill-rule="evenodd" clip-rule="evenodd" d="M144 98.72C144 98.6467 144 98.5734 144 98.5C144 98.4266 144 98.3533 144 98.28V98.72ZM143.937 101H47.0637C48.3648 126.624 69.5531 147 95.5004 147C121.448 147 142.636 126.624 143.937 101ZM143.876 95C142.082 69.8479 121.109 50 95.5004 50C69.8915 50 48.9184 69.8479 47.1248 95H143.876Z" fill="#8D8C91"/>
<circle cx="96.0005" cy="98" r="36" fill="#444444"/>
<circle cx="96.0005" cy="98" r="18" fill="#4BD964"/>
</svg>
