<svg width="120" height="120" viewBox="0 0 120 120" fill="none" xmlns="http://www.w3.org/2000/svg">
<rect x="84.0005" y="8.92017" width="5.65654" height="26.3741" rx="2.82827" transform="rotate(-9.36193 84.0005 8.92017)" fill="#454545"/>
<rect x="114.353" y="25.7117" width="5.65654" height="27.2088" rx="2.82827" transform="rotate(82.5651 114.353 25.7117)" fill="#454545"/>
<rect width="5.65654" height="26.3741" rx="2.82827" transform="matrix(-0.98668 -0.16267 -0.16267 0.98668 36.0845 8.92017)" fill="#454545"/>
<rect width="5.65654" height="27.2088" rx="2.82827" transform="matrix(-0.129399 0.991593 0.991593 0.129399 5.73193 25.7117)" fill="#454545"/>
<circle cx="60.5" cy="62.5" r="48.5" fill="#444444"/>
<path fill-rule="evenodd" clip-rule="evenodd" d="M109 62.72C109 62.6467 109 62.5734 109 62.5C109 62.4266 109 62.3533 109 62.28V62.72ZM108.937 65H12.0637C13.3648 90.624 34.5531 111 60.5004 111C86.4477 111 107.636 90.624 108.937 65ZM108.876 59C107.082 33.8479 86.1093 14 60.5004 14C34.8915 14 13.9184 33.8479 12.1248 59H108.876Z" fill="#8D8C91"/>
<circle cx="61.0005" cy="62" r="36" fill="#444444"/>
<circle cx="61.0005" cy="62" r="18" fill="#4BD964"/>
</svg>
