<svg width="120" height="120" viewBox="0 0 120 120" fill="none" xmlns="http://www.w3.org/2000/svg">
<rect x="16" y="39" width="90" height="43" fill="white"/>
<path d="M93.3193 6H27.6807C16.2913 6 7 15.3782 7 26.874V93.126C7 104.622 16.2913 114 27.6807 114H93.3193C104.709 114 114 104.622 114 93.126V26.874C114 15.3782 104.709 6 93.3193 6ZM39.6695 44.7226C40.8683 43.21 42.9663 42.3025 44.7647 42.3025C44.7647 44.4202 44.1653 45.9328 42.9664 47.4454C42.0672 48.958 39.9692 49.8655 38.1709 49.8655C37.5714 47.7479 38.4706 45.9327 39.6695 44.7226ZM49.2605 71.3446C48.0616 73.4623 46.563 75.2774 44.1653 75.2774C42.0672 75.2774 41.168 74.0672 38.7703 74.0672C36.0728 74.0672 35.1736 75.2774 33.3753 75.2774C31.2773 75.2774 29.4789 73.1596 28.2801 71.042C26.182 68.3193 24.6835 64.084 24.6835 59.8487C24.6835 57.731 25.2829 55.916 26.1821 54.1009C27.6807 51.6807 30.0784 49.8655 33.0756 49.8655C35.1736 49.8655 36.972 51.3781 38.4706 51.3781C39.6695 51.3781 42.0672 49.8655 44.7647 49.8655C45.9635 49.8655 48.9608 50.1682 51.0588 53.1934C50.7591 53.1934 47.4622 55.3109 47.4622 59.8487C47.7619 64.9915 51.958 66.5042 51.958 66.5042C51.3586 66.8067 51.0588 69.227 49.2605 71.3446ZM71.1401 55.0084H65.1457V65.8991C65.1457 68.9243 65.7451 70.4369 68.4426 70.4369C69.3418 70.4369 70.2409 70.1345 70.8403 70.1345V74.9747C69.9412 75.2773 68.4426 75.5798 66.3445 75.5798C64.2465 75.5798 62.1484 74.9747 61.2493 73.4621C60.0504 71.9495 59.1513 69.832 59.1513 66.8068V55.0084H55.5546V50.1682H59.1513V45.0253L65.1457 43.5127V50.4706H71.1401V55.0084ZM88.5238 74.9747H82.5294L73.2381 50.4706H79.8319L83.7283 63.1765C84.3277 65.2942 84.9272 67.1092 85.5266 69.5294H85.8263C86.4258 67.4117 86.7255 65.5967 87.6247 63.1765L91.521 50.4706H98.1149L88.5238 74.9747Z" fill="#333333"/>
</svg>
