<svg width="120" height="120" viewBox="0 0 120 120" fill="none" xmlns="http://www.w3.org/2000/svg">
<path fill-rule="evenodd" clip-rule="evenodd" d="M60 31.8083C81.1513 31.8083 98.2978 25.5212 98.2978 17.7657C98.2978 17.0652 98.1579 16.3766 97.8878 15.7036C120 31.6768 120 59.8936 120 59.8936C120 90.2105 90.6383 114.787 60 114.787C26.8085 114.787 0 90.2105 0 59.8936C0 59.8936 8.03389e-05 31.6769 22.1121 15.7038C21.842 16.3767 21.7021 17.0652 21.7021 17.7657C21.7021 25.5212 38.8486 31.8083 60 31.8083Z" fill="#D1D0D5"/>
<path d="M91.2766 16.5831C91.2766 22.9803 83.6008 28.1662 60.7029 28.1662C37.8051 28.1662 27.4468 22.9803 27.4468 16.5831C27.4468 10.1859 37.8051 5 60.7029 5C83.6008 5 91.2766 10.1859 91.2766 16.5831Z" fill="#575757"/>
</svg>
