<svg width="120" height="120" viewBox="0 0 120 120" fill="none" xmlns="http://www.w3.org/2000/svg">
<path d="M7.70626 9.99992H93.5779V26.5137H7.70626V9.99992Z" fill="#FDCC00"/>
<path d="M28.6239 51.8348H91.3762V67.2476H28.6239V51.8348Z" fill="#FDCC00"/>
<path d="M27.523 92.5688H113.395V109.083H27.523V92.5688Z" fill="#FDCC00"/>
<path d="M91.3762 67.2476C107.185 67.2476 120 54.4323 120 38.6237C120 22.8152 107.185 9.99988 91.3761 9.99988C79.8959 9.99988 69.9941 16.7584 65.4327 26.5136H91.3762V26.5254C98.113 26.8136 103.486 32.3665 103.486 39.1743C103.486 45.9821 98.113 51.5349 91.3762 51.8231L91.3762 51.8348L90.8629 51.8348L90.8257 51.8348L90.7885 51.8348H65.9767C70.7504 60.9939 80.333 67.2476 91.3762 67.2476Z" fill="#FDCC00"/>
<path d="M91.3762 67.2476C107.185 67.2476 120 54.4323 120 38.6237C120 22.8152 107.185 9.99988 91.3761 9.99988C79.8959 9.99988 69.9941 16.7584 65.4327 26.5136H91.3762V26.5254C98.113 26.8136 103.486 32.3665 103.486 39.1743C103.486 45.9821 98.113 51.5349 91.3762 51.8231L91.3762 51.8348L90.8629 51.8348L90.8257 51.8348L90.7885 51.8348H65.9767C70.7504 60.9939 80.333 67.2476 91.3762 67.2476Z" fill="#FDCC00"/>
<path d="M28.6239 51.8348C12.8154 51.8348 1.38202e-06 64.6502 0 80.4587C-1.38202e-06 96.2672 12.8153 109.083 28.6239 109.083C40.1041 109.083 50.0058 102.324 54.5673 92.5688H28.6238V92.557C21.8869 92.2689 16.5136 86.716 16.5136 79.9082C16.5136 73.1003 21.8869 67.5475 28.6238 67.2594L28.6239 67.2476L29.1376 67.2477L29.1741 67.2476L29.2106 67.2477H54.0233C49.2496 58.0885 39.6671 51.8348 28.6239 51.8348Z" fill="#FDCC00"/>
<path d="M28.6239 51.8348C12.8154 51.8348 1.38202e-06 64.6502 0 80.4587C-1.38202e-06 96.2672 12.8153 109.083 28.6239 109.083C40.1041 109.083 50.0058 102.324 54.5673 92.5688H28.6238V92.557C21.8869 92.2689 16.5136 86.716 16.5136 79.9082C16.5136 73.1003 21.8869 67.5475 28.6238 67.2594L28.6239 67.2476L29.1376 67.2477L29.1741 67.2476L29.2106 67.2477H54.0233C49.2496 58.0885 39.6671 51.8348 28.6239 51.8348Z" fill="#FDCC00"/>
<rect x="15.4128" y="15.5046" width="5.50459" height="5.50459" fill="white"/>
<rect x="25.321" y="15.5046" width="5.50459" height="5.50459" fill="white"/>
<rect x="36.3303" y="15.5046" width="5.50459" height="5.50459" fill="white"/>
<rect x="46.2385" y="15.5046" width="5.50459" height="5.50459" fill="white"/>
<rect x="57.2477" y="15.5046" width="5.50459" height="5.50459" fill="white"/>
<rect x="67.156" y="15.5046" width="5.50459" height="5.50459" fill="white"/>
<rect x="77.0642" y="15.5046" width="5.50459" height="5.50459" fill="white"/>
<rect x="86.9724" y="15.5046" width="5.50459" height="5.50459" fill="white"/>
<rect x="97.9817" y="17.7064" width="5.50459" height="5.50459" fill="white"/>
<rect x="105.688" y="25.4128" width="5.50459" height="5.50459" fill="white"/>
<rect x="107.89" y="35.321" width="5.50459" height="5.50459" fill="white"/>
<rect x="106.789" y="46.3302" width="5.50459" height="5.50459" fill="white"/>
<rect x="97.9817" y="54.0366" width="5.50459" height="5.50459" fill="white"/>
<rect x="88.0734" y="57.3395" width="5.50459" height="5.50459" fill="white"/>
<rect x="77.0642" y="57.3395" width="5.50459" height="5.50459" fill="white"/>
<rect x="67.156" y="57.3395" width="5.50459" height="5.50459" fill="white"/>
<rect x="57.2477" y="57.3395" width="5.50459" height="5.50459" fill="white"/>
<rect x="46.2385" y="57.3395" width="5.50459" height="5.50459" fill="white"/>
<rect x="36.3303" y="57.3395" width="5.50459" height="5.50459" fill="white"/>
<rect x="25.321" y="57.3395" width="5.50459" height="5.50459" fill="white"/>
<rect x="15.4128" y="59.5413" width="5.50459" height="5.50459" fill="white"/>
<rect x="7.7063" y="67.2477" width="5.50459" height="5.50459" fill="white"/>
<rect x="5.50439" y="78.2568" width="5.50459" height="5.50459" fill="white"/>
<rect x="8.80713" y="89.2661" width="5.50459" height="5.50459" fill="white"/>
<rect x="17.6147" y="95.8715" width="5.50459" height="5.50459" fill="white"/>
<rect x="28.624" y="98.0735" width="5.50459" height="5.50459" fill="white"/>
<rect x="39.6331" y="98.0735" width="5.50459" height="5.50459" fill="white"/>
<rect x="49.5413" y="98.0735" width="5.50459" height="5.50459" fill="white"/>
<rect x="59.4496" y="98.0735" width="5.50459" height="5.50459" fill="white"/>
<rect x="69.3578" y="98.0735" width="5.50459" height="5.50459" fill="white"/>
<rect x="80.3671" y="98.0735" width="5.50459" height="5.50459" fill="white"/>
<rect x="90.2753" y="98.0735" width="5.50459" height="5.50459" fill="white"/>
<rect x="100.183" y="98.0735" width="5.50459" height="5.50459" fill="white"/>
</svg>
